<svg width="30" height="32" viewBox="0 0 30 32" fill="none" xmlns="http://www.w3.org/2000/svg">
<path d="M15.3763 0C20.1169 1.70664 24.9074 4.53115 28.5013 8.125C30.0423 21.0093 30.0423 21.0093 26.8567 25.3828C24.79 26.9089 22.8344 28.0564 20.5013 29.125C19.809 29.5001 19.1168 29.8752 18.4036 30.2617C15.3577 31.6439 13.6945 31.089 10.5013 30.125C3.27726 25.901 3.27726 25.901 0.501264 23.125C0.293787 20.6679 0.176908 18.2734 0.126264 15.8125C0.0888809 15.1351 0.0514981 14.4577 0.0129824 13.7598C-0.0221738 11.7617 -0.0221738 11.7617 0.501264 8.125C2.80986 5.78906 2.80986 5.78906 5.50126 4.125C6.39652 3.48111 6.39652 3.48111 7.30986 2.82422C10.0508 1.12182 12.1409 0.140666 15.3763 0Z" fill="#04CB67"/>
<path d="M13.5013 7.125C14.1613 7.125 14.8213 7.125 15.5013 7.125C16.3985 8.54813 16.3985 8.54813 17.3138 10C19.6059 13.2745 20.7431 14.0811 24.5013 15.125C23.5113 15.785 22.5213 16.445 21.5013 17.125C18.0575 20.2863 18.0575 20.2863 15.5013 24.125C14.8413 24.125 14.1813 24.125 13.5013 24.125C12.9238 23.1762 12.3463 22.2275 11.7513 21.25C9.19211 17.6956 7.68349 17.0755 3.50128 16.125C4.33659 15.7847 4.33659 15.7847 5.18878 15.4375C8.70088 13.4441 11.6819 10.7638 13.5013 7.125Z" fill="#F2FCF7"/>
</svg>
