<svg width="100" height="100" viewBox="0 0 100 100" fill="none" xmlns="http://www.w3.org/2000/svg">
<g filter="url(#filter0_d_0_1)">
<path d="M60.236 32.072L51.084 31.88C41.74 31.88 37.068 33.928 37.068 38.024C37.068 39.0907 37.452 39.9654 38.22 40.648C39.0307 41.288 40.2253 41.608 41.804 41.608C43.3827 41.608 45.452 40.8827 48.012 39.432L48.972 41.096C47.6493 42.504 46.156 43.6134 44.492 44.424C42.828 45.2347 41.164 45.64 39.5 45.64C37.836 45.64 36.4067 45.0854 35.212 43.976C34.0173 42.8667 33.42 41.48 33.42 39.816C33.42 36.4454 35.2333 33.5014 38.86 30.984C42.5293 28.4667 47.4787 27.208 53.708 27.208C54.22 27.208 56.0547 27.2934 59.212 27.464C62.3693 27.6347 64.8653 27.72 66.7 27.72C68.5347 27.72 70.22 27.4427 71.756 26.888C72.3533 26.7174 72.716 26.632 72.844 26.632C73.4413 26.632 73.74 27.016 73.74 27.784C73.74 28.8934 72.7587 29.896 70.796 30.792C68.876 31.688 66.6573 32.136 64.14 32.136C61.324 34.8667 58.8493 39.6454 56.716 46.472C54.6253 53.256 52.108 58.44 49.164 62.024C46.2627 65.5654 42.8067 67.336 38.796 67.336C37.2173 67.336 35.724 66.824 34.316 65.8L35.788 63.368C36.3 63.624 36.876 63.8587 37.516 64.072L38.412 64.2C38.6253 64.2427 38.9453 64.264 39.372 64.264C41.5053 64.264 43.404 63.24 45.068 61.192C46.7747 59.144 48.5453 55.2827 50.38 49.608C52.2573 43.8907 53.708 40.1147 54.732 38.28C55.7987 36.4027 57.6333 34.3334 60.236 32.072Z" fill="#424B1C"/>
</g>
<circle cx="50" cy="50" r="41.492" stroke="#A6AE73" stroke-width="2.2"/>
<circle cx="50" cy="50" r="47.5" stroke="#5E6C24" stroke-width="5"/>
<defs>
<filter id="filter0_d_0_1" x="29.42" y="26.6321" width="48.32" height="48.7039" filterUnits="userSpaceOnUse" color-interpolation-filters="sRGB">
<feFlood flood-opacity="0" result="BackgroundImageFix"/>
<feColorMatrix in="SourceAlpha" type="matrix" values="0 0 0 0 0 0 0 0 0 0 0 0 0 0 0 0 0 0 127 0" result="hardAlpha"/>
<feOffset dy="4"/>
<feGaussianBlur stdDeviation="2"/>
<feComposite in2="hardAlpha" operator="out"/>
<feColorMatrix type="matrix" values="0 0 0 0 0 0 0 0 0 0 0 0 0 0 0 0 0 0 0.25 0"/>
<feBlend mode="normal" in2="BackgroundImageFix" result="effect1_dropShadow_0_1"/>
<feBlend mode="normal" in="SourceGraphic" in2="effect1_dropShadow_0_1" result="shape"/>
</filter>
</defs>
</svg>
